<svg xmlns="http://www.w3.org/2000/svg" viewBox="0 0 196 40" fill="none">
  <defs>
    <linearGradient id="tile" x1="2" y1="2" x2="38" y2="38" gradientUnits="userSpaceOnUse">
      <stop offset="0" stop-color="#6366f1"/>
      <stop offset="1" stop-color="#8b5cf6"/>
    </linearGradient>
  </defs>
  <g transform="translate(2, 2)">
    <rect width="36" height="36" rx="9" fill="url(#tile)"/>
    <rect x="0.5" y="0.5" width="35" height="35" rx="8.5" stroke="#ffffff" stroke-opacity="0.18"/>
    <path d="M6.5 11.5 C10 9.6 14.5 9.6 18 11.9 L18 26.5 C14.5 24.3 10 24.3 6.5 26.2 Z" fill="#ffffff" fill-opacity="0.95"/>
    <path d="M29.5 11.5 C26 9.6 21.5 9.6 18 11.9 L18 26.5 C21.5 24.3 26 24.3 29.5 26.2 Z" fill="#ffffff" fill-opacity="0.78"/>
    <path d="M18 11.9 L18 26.5" stroke="#4f46e5" stroke-opacity="0.45" stroke-width="1"/>
    <path d="M21.8 10.3 L21.8 17.6 L23.9 15.9 L26 17.6 L26 10.7 Z" fill="#fbbf24"/>
  </g>
  <text x="48" y="28.5" font-family="Inter, -apple-system, 'Segoe UI', sans-serif" font-size="22" font-weight="800" letter-spacing="2" fill="#ffffff">NOVARR</text>
  <circle cx="159" cy="26" r="3" fill="#8b5cf6"/>
</svg>
